# xmcd
#
# Track frame offsets:
#	150
#	13190
#	25945
#	38013
#	51885
#	65700
#	75765
#	85945
#	100468
#	112125
#	122350
#	134028
#
# Disc length: 1986 seconds
#
# Revision: 0
# Processed by: cddbd v1.5.2PL0 Copyright (c) Steve Scherf et al.
# Submitted via: EasyCDDAExtractor 2011.3.0.0
#
DISCID=9d07c00c
DTITLE=Recuerdo de Amor - Lucho Gatica
DYEAR=1991
DGENRE=
TTITLE0=Sombras
TTITLE1=Con mi corazon de espero
TTITLE2=A tu vera
TTITLE3=Sabor a nada
TTITLE4=Quisiera
TTITLE5=Esta noche pago yo
TTITLE6=Cariño mio
TTITLE7=Amor perdido
TTITLE8=Gracias
TTITLE9=Me regalo contigo
TTITLE10=Dias de vino y rosas
TTITLE11=Desvelo de amor
EXTD=
EXTT0=
EXTT1=
EXTT2=
EXTT3=
EXTT4=
EXTT5=
EXTT6=
EXTT7=
EXTT8=
EXTT9=
EXTT10=
EXTT11=
PLAYORDER=
